<svg id="Layer_1" data-name="Layer 1" xmlns="http://www.w3.org/2000/svg" viewBox="0 0 1530.2 290.61"><defs><style>.cls-1{fill:#fff;}</style></defs><path class="cls-1" d="M-.25.27h6v141h-6Zm12,0h6v141h-6Zm18,32.6v108.4h-6V.27h7.4l70.6,128.6v-11.6L38.55.27h6.6l56.6,104.6V.27h6v141h-6l-72-130.2v10.2l65.8,120h-7Zm84-32.6h6v141h-6Zm12,0h6v141h-6Z" transform="translate(0.25 -0.27)"/><path class="cls-1" d="M162.75.27h96v6h-96Zm0,12h96v6h-96Zm24,18h-6v111h-6v-111h-6v111h-6v-117h96v6h-66v24h63v6h-63v6h63v6h-63v6h63v6h-63v27h69v6h-69v6h69v6h-69v6h69v6h-75Z" transform="translate(0.25 -0.27)"/><path class="cls-1" d="M402.75.27h6v84a60,60,0,1,1-120,0V.27h6v84a54,54,0,1,0,108,0Zm-102,0h6v84a42,42,0,0,0,84,0V.27h6v84a48,48,0,0,1-96,0Zm78,0h6v84a36,36,0,0,1-72,0V.27h6v84a30,30,0,0,0,60,0Z" transform="translate(0.25 -0.27)"/><path class="cls-1" d="M425,.27H533v6H425Zm0,12H533v6H425Zm63,18h-6v111h-6v-111h-6v111h-6v-111H425v-6H533v6H494v111h-6Z" transform="translate(0.25 -0.27)"/><path class="cls-1" d="M575.74,30.27h-6v111h-6v-111h-6v111h-6v-117h61.6a19.5,19.5,0,1,1,0,39h-31.6v6h31.6a25.5,25.5,0,1,0,0-51h-61.6v-6h61.6a31.5,31.5,0,1,1,0,63h-31.6v6h31.6a37.5,37.5,0,1,0,0-75h-61.6v-6h61.6a43.48,43.48,0,0,1,14.8,84.4l30.8,56.6h-7l-29.8-54.8a30.92,30.92,0,0,1-6.2.8l29.4,54h-7.2l-29.4-54h-6.6l29.2,54h-6.8l-29.4-54h-13.4v54h-6Zm6,0v27h31.6a13.32,13.32,0,0,0,13.6-13.4,13.49,13.49,0,0,0-13.6-13.6Z" transform="translate(0.25 -0.27)"/><path class="cls-1" d="M716.54.27h6.4l-49.4,141h-6.2Zm12.8,0h6.4l-49.2,141h-6.6Zm13,0h9.2l49.4,141h-6.6L746.74,5.07l-3.2,9,44.6,127.2h-6.6l-41.2-117.8-3,8.6,37.8,109.2h-6.4l-10.4-30h-48.8l-10.4,30h-6.2Zm-30.6,105h44.6l-2-6h-40.6Zm4.2-12h36.2l-2-6h-32.2Zm4.2-12h27.8l-13.8-40.2Z" transform="translate(0.25 -0.27)"/><path class="cls-1" d="M816.34.27h6v141h-6Zm12,0h6v141h-6Zm12,0h6v111h60v6h-60v6h60v6h-60v6h60v6h-66Z" transform="translate(0.25 -0.27)"/><path class="cls-1" d="M938.14,105.27a19.5,19.5,0,1,1,0,39,19.5,19.5,0,0,1,0-39Zm0,33a13.32,13.32,0,0,0,13.6-13.4,13.49,13.49,0,0,0-13.6-13.6,13.32,13.32,0,0,0-13.4,13.6A13.15,13.15,0,0,0,938.14,138.27Zm0-20.8a7.6,7.6,0,0,1,7.6,7.6,7.43,7.43,0,0,1-7.6,7.4,7.26,7.26,0,0,1-7.4-7.4A7.43,7.43,0,0,1,938.14,117.47Zm0,10a2.4,2.4,0,1,0-2.4-2.4A2.31,2.31,0,0,0,938.14,127.47Z" transform="translate(0.25 -0.27)"/><path class="cls-1" d="M982.94.27h6v141h-6Zm12,0h6v141h-6Zm12,0h6v111h60v6h-60v6h60v6h-60v6h60v6h-66Z" transform="translate(0.25 -0.27)"/><path class="cls-1" d="M1125.53.27h6.4l-49.4,141h-6.2Zm12.8,0h6.4l-49.2,141h-6.6Zm13,0h9.2l49.4,141h-6.6l-47.6-136.2-3.2,9,44.6,127.2h-6.6l-41.2-117.8-3,8.6,37.8,109.2h-6.4l-10.4-30h-48.8l-10.4,30h-6.2Zm-30.6,105h44.6l-2-6h-40.6Zm4.2-12h36.2l-2-6h-32.2Zm4.2-12h27.8l-13.8-40.2Z" transform="translate(0.25 -0.27)"/><path class="cls-1" d="M1225.33.27h6v141h-6Zm12,0h6v141h-6Zm18,32.6v108.4h-6V.27h7.4l70.6,128.6v-11.6l-63.2-117h6.6l56.6,104.6V.27h6v141h-6l-72-130.2v10.2l65.8,120h-7Zm84-32.6h6v141h-6Zm12,0h6v141h-6Z" transform="translate(0.25 -0.27)"/><path class="cls-1" d="M1412.33,30.27h-6v111h-6v-111h-6v111h-6v-117h56.4c27.4,0,49.6,20.4,49.6,46.6s-22.2,46.4-49.6,46.4h-26.4v6h26.4c30.6,0,55.6-23,55.6-52.4s-25-52.6-55.6-52.6h-56.4v-6h56.4c34,0,61.6,25.8,61.6,58.6s-27.6,58.4-61.6,58.4h-26.4v6h26.4c37.4,0,67.6-28.2,67.6-64.4s-30.2-64.6-67.6-64.6h-56.4v-6h56.4c40.6,0,73.6,31.2,73.6,70.6s-33,70.4-73.6,70.4h-32.4Zm6,0v81h26.2c24,0,43.6-17.6,43.6-40.4s-19.6-40.6-43.6-40.6Z" transform="translate(0.25 -0.27)"/><path class="cls-1" d="M864.65,244.76a50.34,50.34,0,0,1-7.42,4.8,2.32,2.32,0,0,1-1,.22,2.43,2.43,0,0,1-2.25-2.32,1.47,1.47,0,0,1,.9-1.35c5.4-2.78,11.7-8,14.78-10.65,2.92-2.63,9.45-8.78,14.62-14.25a1,1,0,0,1,.75-.38c1,0,2,1.2,2,2.55a2.65,2.65,0,0,1-.53,1.65c-2.17,2.85-4.12,5.1-6,7.43,3.38-2.33,7.28-3.9,10.43-3.9,3.6,0,5.4,3.45,5.4,5.85,0,4.12-3.45,9.07-7.88,12.6,6.53-2.25,11.85-6,17.1-10.5.53-.45.68-.53,1-.53a2.64,2.64,0,0,1,2.1,2.33,1.4,1.4,0,0,1-.6,1.05c-9.45,8.1-21.08,13.72-31.65,13.72-3.68,0-7.2-1.57-7.2-6.37-1.5,1.72-3.22,3.45-4.87,5.25-8.93,9.9-22,22.87-32.78,33.07-.6.45-.9.67-1.42.67-1,0-1.58-1.27-1.58-2.55a3.28,3.28,0,0,1,.68-2C840.8,268.38,853.55,256.08,864.65,244.76Zm9.52-3a7.39,7.39,0,0,0-.67,2.85,3.66,3.66,0,0,0,3.9,3.9c2.85,0,6.45-2.4,8.1-3.9s5.1-5,5.1-8.1a3,3,0,0,0-2.85-3.23C884.38,233.28,879.8,236.51,874.17,241.76Z" transform="translate(0.25 -0.27)"/><path class="cls-1" d="M916.55,225.93a1.36,1.36,0,0,1,1.05-.37c.9,0,2.17.6,2.17,1.5s-1.2,1.57-1.2,2.32,1.65,1,2.56,1c1.5,0,2.84-.45,3.52-.45,1,0,1.65,1.2,1.65,2.1a1.37,1.37,0,0,1-.38.9c-3.67,3.3-9.75,9.3-9.75,12.15a1.61,1.61,0,0,0,1.73,1.72c3.67,0,11.47-6.22,16.2-10.27.52-.45.75-.53,1-.53a2.64,2.64,0,0,1,2.1,2.33,1.37,1.37,0,0,1-.6,1.05c-5.77,4.95-14.77,13-21.9,13-3.75,0-4.64-2.55-4.64-4.57,0-5.63,6.52-11.4,7.79-12.75a3.65,3.65,0,0,1-3.37-1.73c-.9,1-4.88,4.73-6.45,6.08-.53.45-.75.52-1,.52a2.63,2.63,0,0,1-2.1-2.32c0-.38.07-.6.6-1.05C907.1,235.16,911,231.41,916.55,225.93Z" transform="translate(0.25 -0.27)"/><path class="cls-1" d="M929.07,246c0-8.4,13-18.37,21.75-18.37,4.58,0,6.23,2.47,6.23,5.7a13.42,13.42,0,0,1-1.65,6,4.23,4.23,0,0,0,1.72.3c2.55,0,4.8-1.35,6.9-3.15.53-.45.75-.53,1-.53a2.64,2.64,0,0,1,2.1,2.33,1.4,1.4,0,0,1-.6,1.05c-3.15,2.7-6.68,5.62-10.8,5.62a7.62,7.62,0,0,1-3.45-.67c-4.35,5-10.8,8.77-16.43,8.77C931.32,253.08,929.07,250.68,929.07,246Zm22.58-12.9a5.08,5.08,0,0,0-2.33-.52c-2.47,0-5.92,1.35-9.37,3.9-3.08,2.25-5.63,5.62-5.63,8.25a3.17,3.17,0,0,0,3.45,3.22c2,0,4.8-1,8.4-3.45a30.6,30.6,0,0,0,3.15-2.7,7.43,7.43,0,0,1-.75-3.52C948.57,235.76,949.85,233.73,951.65,233.13Z" transform="translate(0.25 -0.27)"/><path class="cls-1" d="M959,246.26c0-8.85,11.77-17.63,20.77-17.63a6.69,6.69,0,0,1,4.58,2,125.93,125.93,0,0,1,15.22-20.7c16.65-18.52,40-35.85,45.6-35.85a1.73,1.73,0,0,1,1.95,1.88c0,5.25-29.17,33.67-41,44.7-6.15,5.77-13.5,13.2-20.85,19.57a14.16,14.16,0,0,0-.6,3.6c0,1.5.67,2.7,2.1,2.7,4.35,0,14.47-8.62,16-10,.52-.45.75-.53,1-.53a2.64,2.64,0,0,1,2.1,2.33,1.37,1.37,0,0,1-.6,1.05c-1.57,1.35-14.62,13.27-21.37,13.27-3.83,0-5.18-3.22-5.18-5.7v-1.42c-5.4,4.05-10.5,6.82-14.25,6.82C960.42,252.33,959,249.18,959,246.26Zm23-10.95c-.53-1.58-1.73-2.18-3.9-2.18a13.91,13.91,0,0,0-8.18,3.08c-3.6,2.77-5.17,5.62-5.17,7.72a2.51,2.51,0,0,0,2.55,2.78c2.7,0,7.57-3.23,13-7.58C980.75,237.93,981.35,236.51,982,235.31Zm7.65-4.2c6-5.55,11.7-11,15.37-14.63,8.18-7.8,24.45-23.4,36.15-36.9-12.37,8.33-26,20.85-37.27,33A127.87,127.87,0,0,0,989.6,231.11Z" transform="translate(0.25 -0.27)"/><path class="cls-1" d="M997.4,248.06c0-5.85,5.4-12.6,13.87-19.65a1.39,1.39,0,0,1,.68-.23c1,0,2.17,1.73,2.17,3.15a1,1,0,0,1-.45,1c-5.85,4.95-10,9.82-10,12.9a1.53,1.53,0,0,0,1.72,1.57c3.45,0,13.65-9.6,19.95-17.32a1.21,1.21,0,0,1,1-.45,2.92,2.92,0,0,1,2.47,2.85,2.24,2.24,0,0,1-.3,1.27c-4.42,5.78-8.17,9.68-8.17,12.38a1.48,1.48,0,0,0,1.57,1.5c3.23,0,11-6.45,15.75-10.5.53-.45.75-.53,1-.53a2.64,2.64,0,0,1,2.1,2.33,1.4,1.4,0,0,1-.6,1.05c-6.83,5.85-15.9,13.42-21.53,13.42a4,4,0,0,1-4-4.35,9.55,9.55,0,0,1,.6-3.15c-4.12,3.9-9.3,7.28-13.42,7.28A4.14,4.14,0,0,1,997.4,248.06Z" transform="translate(0.25 -0.27)"/><path class="cls-1" d="M1032.12,245.51c0-8.1,12.3-17.63,20.78-17.63,2.7,0,4,1.8,4,4.35s-2.4,5.18-4.8,5.18c-2.55,0-.68-4.73-2.7-4.73-2.93,0-11.48,6.9-11.48,12.08a3.22,3.22,0,0,0,3.38,3.22c7,0,18.52-9.67,20.62-11.47.53-.45.75-.53,1-.53a2.64,2.64,0,0,1,2.1,2.33,1.4,1.4,0,0,1-.6,1.05c-1.58,1.35-14.63,13.72-25.28,13.72C1034.82,253.08,1032.12,250,1032.12,245.51Z" transform="translate(0.25 -0.27)"/><path class="cls-1" d="M1056.2,246.56c0-8.7,12.67-18.15,20.92-18.15a3.56,3.56,0,0,1,3.9,3.82c0,6.23-9.07,11.55-18.37,11.7a4.09,4.09,0,0,0-.08.9c0,2.33,1,3.15,3.08,3.15,9.07,0,21-10.12,22.57-11.47.52-.45.75-.53,1-.53a2.64,2.64,0,0,1,2.1,2.33,1.37,1.37,0,0,1-.6,1.05c-1.57,1.35-15.52,13.27-27.59,13.27C1059.12,252.63,1056.2,249.78,1056.2,246.56Zm8-5.93c5.24,0,12.52-4.27,12.52-6.67a1.28,1.28,0,0,0-1.42-1.35C1072.77,232.61,1066.92,236.51,1064.15,240.63Z" transform="translate(0.25 -0.27)"/><path class="cls-1" d="M1083.19,246.26c0-8.85,11.78-17.63,20.78-17.63a6.65,6.65,0,0,1,4.57,2,126.56,126.56,0,0,1,15.23-20.7c16.65-18.52,40-35.85,45.22-35.85,1.88,0,2.32.68,2.32,1.73a5.29,5.29,0,0,1-1.19,3c-5.63,8.85-29.33,32.1-39.83,41.85-6.15,5.77-13.5,13.2-20.85,19.57a14.62,14.62,0,0,0-.6,3.6c0,1.5.68,2.7,2.1,2.7,2.85,0,5-1.95,6.3-3.22a.83.83,0,0,1,.68-.23,2.35,2.35,0,0,1,1.95,2.25,1.67,1.67,0,0,1-.3,1c-1,1.35-5.78,6.37-11.48,6.37-3.82,0-5.17-3.22-5.17-5.7v-1.42c-5.4,4.05-10.5,6.82-14.25,6.82C1084.62,252.33,1083.19,249.18,1083.19,246.26Zm23-10.95c-.6-1.73-2.1-2.18-3.9-2.18a13.91,13.91,0,0,0-8.17,3.08c-3.6,2.77-5.18,5.62-5.18,7.72a2.51,2.51,0,0,0,2.55,2.78c2.7,0,7.58-3.23,13-7.58A23.33,23.33,0,0,1,1106.14,235.31Zm7.65-4.2c6-5.55,11.7-11,15.38-14.63,8.17-7.65,24.82-23.47,36.15-36.9-12.38,8.33-26,20.85-37.28,33A128.58,128.58,0,0,0,1113.79,231.11Z" transform="translate(0.25 -0.27)"/><path class="cls-1" d="M1152.12,245.43c0-.67.15-1.35.22-2.17a52.26,52.26,0,0,1-9.3,6.3,1.77,1.77,0,0,1-.9.22,2.43,2.43,0,0,1-2.25-2.32,1.47,1.47,0,0,1,.9-1.35c5.4-2.63,11.33-7.65,13.88-9.9,4.5-10.2,14.55-23.93,26.4-35.85,16.65-16.88,33.37-31.13,41.39-31.13,1.28,0,2,.83,2,2.48,0,7.12-21,29.32-36.23,42.37-6.3,5.4-12.15,10.13-17.55,14.25,2,.68,2.7,3.45,2.7,6.45a15.49,15.49,0,0,1-.3,3.15,6.81,6.81,0,0,0,5,1.88c2.55,0,4.87-1.05,7.5-3.3.52-.45.75-.53,1-.53a2.49,2.49,0,0,1,2.1,2.33,1.37,1.37,0,0,1-.6,1.05c-1.57,1.35-6.6,5.62-11.92,5.62a9.86,9.86,0,0,1-5-1.5c-2.77,5.4-7.72,9.75-12.75,9.75C1153.77,253.23,1152.12,248.66,1152.12,245.43Zm6.6-7.35a16.63,16.63,0,0,0-1,5.25c0,3.15.83,4.43,2.78,4.43,3,0,6.22-3.68,7.72-7a14,14,0,0,1-2.47-7.88v-.6Zm4.65-9.15c6.67-5.4,13-10.05,23.17-19.05,14-12.45,30.3-30.6,30.67-33.07a.41.41,0,0,0-.44-.38c-2.1,0-14.85,10.8-32.63,28.8C1175.67,213.86,1168.24,221.81,1163.37,228.93Z" transform="translate(0.25 -0.27)"/><path class="cls-1" d="M1179.27,248.51c0-5.93,8.47-15.15,14.32-19.35a1.77,1.77,0,0,1,.9-.38c1.28,0,2.33,1.5,2.33,2.78a1.57,1.57,0,0,1-.6,1.27c-4.2,2.93-10.43,9.38-10.43,12.38,0,.9.38,1.5,1.28,1.5,6.07,0,18.45-10.5,25.2-17.48.52-.45,1-1,1.65-1,1.12,0,2.62,1,2.62,2.1,0,.9-7,10.2-14.77,19.95,8.7-3.75,16.94-7.12,19.79-7.12.75,0,1.06.6,1.06,1.42a4.05,4.05,0,0,1-2.78,3.68,136,136,0,0,0-23.62,8.55c-3.23,3.9-6.45,7.49-9.08,10.35-9.75,10.12-22.72,23.77-32.25,23.77a4.4,4.4,0,0,1-4.65-4.73c0-9.07,20-20.84,34.5-28l6.75-3.37,7-8.78c-5.17,3.75-10.72,6.6-14.92,6.6A4.07,4.07,0,0,1,1179.27,248.51Zm5.92,13.65-2.85,1.65c-11.92,6.6-26.47,16.65-26.47,20.84,0,.83.45.9,1,.9,4.65,0,17-12,24.38-19.12C1182.57,265.08,1183.92,263.66,1185.19,262.16Z" transform="translate(0.25 -0.27)"/><path class="cls-1" d="M1274.81,214.31h.45c11.48-11.93,28.88-32.55,28.88-37.28,0-1.65-.68-2.4-2.7-2.4-10.13,0-27.6,8.93-41.1,25a1.8,1.8,0,0,1,.82,1.42c0,1.58-6.22,8.25-9.07,8.25a2,2,0,0,1-2.33-2.32c0-9.53,32.85-38.55,56.48-38.55,3.75,0,5,3,5,6,0,7.57-13.72,23.7-27.75,38.85,25-12.38,41.33-25.2,60.6-45.45a.84.84,0,0,1,.45-.23c.9,0,1.73,2.18,1.73,4.13a3.74,3.74,0,0,1-.68,2.47c-20.25,20.78-41.25,34.95-63.15,43.5,2.55,1.73,3.38,4.35,3.38,7.35,0,7.43-5.63,17.33-5.63,21.68,0,1.35.53,2.17,2.18,2.17,6.07,0,17.17-8.32,21.9-12.37.52-.45.75-.53,1-.53a2.64,2.64,0,0,1,2.1,2.33,1.37,1.37,0,0,1-.6,1.05c-5.77,4.95-17.55,14.25-25.57,14.25-5.93,0-7.88-2.48-7.88-5.85,0-6.9,7.2-17.93,7.2-24.45a4.66,4.66,0,0,0-2.25-4.43c-11,11.4-22.27,23.48-34.72,35.48-.23.15-.3.22-.53.22-1,0-2.32-2.62-2.32-4.8a2.55,2.55,0,0,1,.68-2c11.17-10.5,20-19.13,29.62-28.95a2.67,2.67,0,0,1-.6-1.5C1270.39,215.73,1272.26,214.31,1274.81,214.31Z" transform="translate(0.25 -0.27)"/><path class="cls-1" d="M1298.51,246.56c0-8.7,12.68-18.15,20.93-18.15a3.56,3.56,0,0,1,3.9,3.82c0,6.23-9.08,11.55-18.38,11.7a4.66,4.66,0,0,0-.07.9c0,2.33,1,3.15,3.07,3.15,9.08,0,21-10.12,22.58-11.47.52-.45.75-.53,1-.53a2.64,2.64,0,0,1,2.1,2.33,1.37,1.37,0,0,1-.6,1.05c-1.57,1.35-15.52,13.27-27.6,13.27C1301.44,252.63,1298.51,249.78,1298.51,246.56Zm8-5.93c5.25,0,12.53-4.27,12.53-6.67a1.28,1.28,0,0,0-1.43-1.35C1315.09,232.61,1309.24,236.51,1306.46,240.63Z" transform="translate(0.25 -0.27)"/><path class="cls-1" d="M1357.46,239.66a11.31,11.31,0,0,0,7.27-3.15c.53-.45.75-.53,1-.53a2.64,2.64,0,0,1,2.1,2.33,1.4,1.4,0,0,1-.6,1.05c-1.58,1.35-6.53,5.62-11.17,5.62-3.38,0-5.78-1.5-6.83-4-8,8-15,11.63-19.72,11.63a4.14,4.14,0,0,1-4.35-4.5c0-5.85,5.4-12.53,13-18.9.82-.75,1.19-1,1.5-1,1,0,2.17,1.73,2.17,3.15a1.22,1.22,0,0,1-.45,1.13c-5.85,4.8-10,9.67-10,12.75a1.53,1.53,0,0,0,1.72,1.57c3.45,0,13.42-9.3,20.32-17.62a1.36,1.36,0,0,1,.83-.38c1.13,0,2.4,1.58,2.4,3.08a1.88,1.88,0,0,1-.45,1.27l-2.78,3.38A3.9,3.9,0,0,0,1357.46,239.66Z" transform="translate(0.25 -0.27)"/><path class="cls-1" d="M1359.11,246.78c0-5.47,7.72-13.05,14.47-18.67a1.34,1.34,0,0,1,.75-.38c1,0,2.55,1.73,2.55,2.85a.91.91,0,0,1-.37.75c-5.4,5.4-11.47,10.88-11.47,14.33a1.71,1.71,0,0,0,1.94,2c5,0,15.38-9.75,17-11.1.53-.45.75-.53,1-.53a2.64,2.64,0,0,1,2.1,2.33,1.4,1.4,0,0,1-.6,1.05c-1.58,1.35-14.1,13.27-21.22,13.27C1361.29,252.63,1359.11,250.16,1359.11,246.78Zm20.32-25.72c0-2.93,3.23-6.6,6.3-6.6a2.15,2.15,0,0,1,2.33,2.4c0,3-3.6,6.75-6.38,6.75A2.3,2.3,0,0,1,1379.43,221.06Z" transform="translate(0.25 -0.27)"/><path class="cls-1" d="M1384.68,239.66a2.79,2.79,0,0,1-1.35-2.1c0-.38.08-.6.6-1.05A80.46,80.46,0,0,0,1392,228a2,2,0,0,1,1.65-.75c1.28,0,2.78,2.17,2.78,3.52a2.87,2.87,0,0,1-.75,1.73c-.9,1.27-2.63,3.22-4.8,6,8-5.55,16.42-9.53,19.2-9.53,1.12,0,2.17,1.95,2.17,3.08,0,1.35-4.27,4-6.3,5.7-3,2.47-6.3,5.85-6.3,8.17,0,.9.53,1.73,2,1.73,2.4,0,5.93-2,7.65-4.73a.63.63,0,0,1,.6-.22c.75,0,1.95.9,1.95,1.5,0,2.32-5.4,8.25-12.67,8.25-3.08,0-5.4-2-5.4-5,0-3.45,2.47-6.67,5.92-9.9A57.09,57.09,0,0,0,1383,250.61c-.82.9-1.5,1.57-2.1,1.57-.9,0-2.77-1.27-2.77-2s.75-1.5,1-2.1C1381.08,245.06,1382.88,242.58,1384.68,239.66Z" transform="translate(0.25 -0.27)"/><path class="cls-1" d="M1443.18,236c0-11.55,8.25-26.7,22.73-41,14.32-14.18,37.64-26,53.24-26,7.43,0,10.8,3.75,10.8,8.32,0,4.95-3.15,10.73-8,14.93a2.6,2.6,0,0,1,.23.75c0,1.72-3.68,4.87-6.9,7a63.57,63.57,0,0,1-11.93,6.23,6.81,6.81,0,0,1-1.12.07c-1.65,0-2.78-.9-2.78-2.17,0-.83.61-1.58,1.88-2.33,10.87-5.25,21.52-14.4,21.52-22.35,0-2.77-1.27-5.4-5.92-5.4-15.52,0-38.85,15.53-48.6,26-14.17,15.45-18.45,26.77-18.45,34.57s4.13,14.1,13,14.1c11.1,0,22-8.17,26.77-12.22.53-.45.75-.53,1-.53a2.66,2.66,0,0,1,2.1,2.33,1.4,1.4,0,0,1-.6,1.05c-5.78,4.95-19.8,15-31.58,15C1449.11,254.36,1443.18,247.16,1443.18,236Z" transform="translate(0.25 -0.27)"/><path class="cls-1" d="M1496.88,249.71c0-3.68,3.9-8.33,7.65-8.33a2.75,2.75,0,0,1,2.93,3c0,3.68-4.35,8.4-7.8,8.4A2.81,2.81,0,0,1,1496.88,249.71Z" transform="translate(0.25 -0.27)"/></svg>